<?xml version="1.0" encoding="UTF-8"?>
<!DOCTYPE svg PUBLIC "-//W3C//DTD SVG 1.1//EN" "http://www.w3.org/Graphics/SVG/1.1/DTD/svg11.dtd">
<!-- Creator: CorelDRAW X6 -->
<svg xmlns="http://www.w3.org/2000/svg" xml:space="preserve" width="9.37489in" height="6.97189in" version="1.1" style="shape-rendering:geometricPrecision; text-rendering:geometricPrecision; image-rendering:optimizeQuality; fill-rule:evenodd; clip-rule:evenodd"
viewBox="0 0 9387 6981"
 xmlns:xlink="http://www.w3.org/1999/xlink">
 <defs>
  <style type="text/css">
   <![CDATA[
    .fil1 {fill:#2D4869;fill-rule:nonzero}
    .fil2 {fill:#A3A5A8;fill-rule:nonzero}
    .fil0 {fill:#F26836;fill-rule:nonzero}
   ]]>
  </style>
 </defs>
 <g id="Layer_x0020_1">
  <metadata id="CorelCorpID_0Corel-Layer"/>
  <g id="_655343984">
   <polygon class="fil0" points="648,5168 294,5168 473,4313 222,4313 287,3999 1145,3999 1079,4313 827,4313 "/>
   <path class="fil0" d="M1408 4845l16 20 136 0 25 -20 108 -524 -16 -20 -134 0 -25 20 -110 524zm316 322l-588 0 -118 -150 180 -868 180 -150 588 0 116 150 -180 868 -179 150z"/>
   <path class="fil0" d="M2535 4281l-64 309 156 0 25 -22 56 -265 -16 -22 -156 0zm-185 887l-354 0 243 -1169 738 0 116 150 -118 573 -180 150 -382 0 -62 296z"/>
   <polygon class="fil0" points="4005,5168 3416,5168 3298,5017 3478,4149 3659,3999 4247,3999 4364,4149 4301,4453 3947,4453 3975,4311 3959,4291 3824,4291 3800,4311 3687,4855 3703,4875 3839,4875 3862,4855 3892,4712 4245,4712 4183,5017 "/>
   <path class="fil0" d="M4814 4281l-61 289 156 0 25 -22 52 -245 -16 -22 -156 0zm-185 887l-354 0 243 -1169 738 0 116 150 -115 550 -105 92 33 377 -359 0 -28 -317 -103 0 -66 317z"/>
   <path class="fil0" d="M5894 4278l-113 357 136 0 33 -357 -56 0zm-656 890l424 -1169 629 0 -61 1169 -362 0 20 -225 -205 0 -72 225 -374 0z"/>
   <polygon class="fil0" points="6637,5168 6317,5168 6560,3999 6927,3999 7038,4556 7051,4556 7169,3999 7487,3999 7245,5168 6878,5168 6766,4610 6753,4610 "/>
   <polygon class="fil0" points="8192,5168 7374,5168 7617,3999 8430,3999 8371,4284 7913,4284 7879,4446 8280,4446 8223,4720 7822,4720 7787,4882 8249,4882 "/>
   <polygon class="fil0" points="9028,5168 8439,5168 8321,5017 8369,4787 8720,4787 8698,4894 8713,4914 8854,4914 8879,4894 8903,4782 8893,4764 8484,4587 8430,4500 8502,4149 8682,3999 9270,3999 9387,4149 9339,4373 8990,4373 9012,4273 8995,4252 8854,4252 8830,4273 8807,4376 8818,4394 9226,4573 9280,4658 9207,5017 "/>
   <polygon class="fil0" points="9096,6283 8,6283 8,6181 9096,6181 "/>
   <polygon class="fil1" points="324,5938 130,5938 91,5877 151,5523 210,5462 404,5462 443,5523 423,5639 307,5639 315,5585 310,5577 266,5577 257,5585 218,5818 224,5826 270,5826 277,5818 285,5773 255,5773 272,5675 417,5675 383,5877 "/>
   <polygon class="fil1" points="792,5938 522,5938 602,5462 870,5462 851,5578 700,5578 688,5644 821,5644 802,5756 669,5756 658,5822 811,5822 "/>
   <polygon class="fil1" points="1040,5938 934,5938 1014,5462 1136,5462 1172,5689 1177,5689 1216,5462 1321,5462 1241,5938 1119,5938 1083,5711 1078,5711 "/>
   <polygon class="fil1" points="1661,5938 1391,5938 1471,5462 1740,5462 1720,5578 1569,5578 1558,5644 1690,5644 1672,5756 1539,5756 1528,5822 1680,5822 "/>
   <path class="fil1" d="M1982 5577l-20 118 51 0 8 -9 17 -100 -5 -9 -51 0zm-61 361l-117 0 80 -476 243 0 38 61 -38 224 -35 37 11 154 -118 0 -9 -129 -34 0 -22 129z"/>
   <path class="fil1" d="M2447 5576l-37 145 45 0 11 -145 -18 0zm-216 362l140 -476 208 0 -20 476 -120 0 6 -92 -68 0 -24 92 -123 0z"/>
   <polygon class="fil1" points="2964,5938 2694,5938 2774,5462 2891,5462 2833,5807 2986,5807 "/>
   <polygon class="fil1" points="3492,5938 3376,5938 3435,5590 3352,5590 3373,5462 3656,5462 3635,5590 3551,5590 "/>
   <path class="fil1" d="M3893 5577l-20 118 51 0 8 -9 17 -100 -5 -9 -51 0zm-61 361l-117 0 80 -476 243 0 38 61 -38 224 -35 37 11 154 -118 0 -9 -129 -34 0 -22 129z"/>
   <path class="fil1" d="M4357 5576l-37 145 45 0 11 -145 -18 0zm-216 362l140 -476 208 0 -20 476 -120 0 6 -92 -68 0 -24 92 -123 0z"/>
   <polygon class="fil1" points="4710,5938 4605,5938 4685,5462 4806,5462 4843,5689 4847,5689 4886,5462 4991,5462 4911,5938 4790,5938 4753,5711 4749,5711 "/>
   <polygon class="fil1" points="5303,5938 5109,5938 5070,5877 5086,5783 5201,5783 5194,5827 5199,5835 5246,5835 5254,5827 5262,5781 5259,5773 5124,5701 5106,5666 5129,5523 5189,5462 5383,5462 5422,5523 5406,5614 5291,5614 5298,5574 5292,5565 5246,5565 5238,5574 5230,5616 5234,5623 5369,5696 5386,5731 5362,5877 "/>
   <path class="fil1" d="M5678 5577l-21 126 51 0 8 -9 18 -108 -5 -9 -51 0zm-61 361l-117 0 80 -476 243 0 38 61 -39 233 -60 61 -126 0 -21 120z"/>
   <path class="fil1" d="M6078 5807l5 8 45 0 8 -8 36 -213 -5 -8 -44 0 -8 8 -36 213zm104 131l-194 0 -39 -61 59 -353 60 -61 194 0 38 61 -59 353 -59 61z"/>
   <path class="fil1" d="M6558 5577l-20 118 51 0 8 -9 17 -100 -5 -9 -51 0zm-61 361l-117 0 80 -476 243 0 38 61 -38 224 -35 37 11 154 -118 0 -9 -129 -34 0 -22 129z"/>
   <polygon class="fil1" points="7009,5938 6893,5938 6951,5590 6869,5590 6890,5462 7173,5462 7152,5590 7068,5590 "/>
   <polygon class="fil1" points="7699,5938 7429,5938 7509,5462 7626,5462 7568,5807 7721,5807 "/>
   <polygon class="fil1" points="7938,5938 7841,5938 7862,5812 7960,5812 "/>
   <polygon class="fil1" points="8357,5938 8087,5938 8167,5462 8284,5462 8226,5807 8379,5807 "/>
   <polygon class="fil1" points="8596,5938 8499,5938 8520,5812 8618,5812 "/>
   <polygon class="fil1" points="8978,5938 8784,5938 8745,5877 8804,5523 8864,5462 9058,5462 9096,5523 9076,5647 8959,5647 8968,5589 8963,5581 8918,5581 8910,5589 8873,5811 8878,5819 8923,5819 8931,5811 8941,5752 9057,5752 9037,5877 "/>
   <path class="fil1" d="M3933 708c1,1 1,3 2,4 22,-12 44,-25 66,-37 -1,-1 -1,-3 -2,-4l-66 37zm-701 857c-13,-6 -26,-12 -39,-17 -1,2 -2,5 -3,7 13,6 22,23 42,11zm-319 191c1,0 3,0 4,0 1,-11 3,-22 5,-38 -8,5 -14,8 -21,11 5,11 8,19 12,27zm-1306 724c0,2 0,4 1,6 11,-1 22,-2 33,-4 -14,-26 -23,-5 -34,-3zm38 -89c4,6 8,11 14,20 6,-13 10,-23 14,-32 -1,-1 -2,-2 -3,-3 -8,5 -16,10 -25,16zm1688 375c-2,1 -4,2 -5,3 9,18 18,37 27,55l6 -3c-10,-18 -19,-36 -28,-55zm132 441c1,0 2,0 4,0l0 -82c-1,0 -2,0 -4,0l0 82zm-1889 -773c-2,0 -2,14 -4,28 14,-10 22,-15 31,-21 0,-2 0,-4 0,-6 -9,-1 -18,-3 -27,-1zm969 -574c-15,8 -27,15 -40,22 24,14 33,1 40,-22zm-723 455c5,-11 9,-21 14,-30l-4 -5c-9,4 -18,9 -31,15 9,8 14,13 22,20zm3219 352c1,17 6,24 22,31 16,7 26,-1 35,-13 -24,14 -37,10 -57,-18zm-2090 -924c8,-17 17,-35 27,-56 -32,9 -24,35 -27,56zm-79 -79c1,2 1,4 2,5 14,-2 28,-4 44,-6 -2,-8 -4,-14 -6,-23 -15,9 -28,16 -40,23zm-769 569c-7,-5 -12,-9 -20,-15 -10,12 -20,23 -34,40 21,-10 36,-17 53,-25zm1314 -860c-2,5 -1,12 0,17 0,1 10,2 11,0 4,-5 7,-12 8,-19 0,-5 -4,-11 -7,-20 -5,9 -10,15 -12,22zm-1813 1043c17,16 17,16 40,-1 -5,-5 -9,-10 -15,-16 -10,7 -18,12 -26,17zm1230 -567c-38,-5 -43,-2 -49,27 17,-10 32,-18 49,-27zm-635 -142c-4,19 -12,37 -19,55 26,-29 36,-80 23,-111 -1,18 0,38 -4,57zm234 318c15,9 24,18 34,20 4,1 10,-14 19,-27 -20,3 -33,5 -53,8zm-1971 614c0,-1 -10,-1 -11,1 -4,9 -7,19 -10,31l26 0c-2,-13 -3,-22 -4,-32zm2299 -886c6,1 12,-1 19,-2 -2,-6 -2,-14 -5,-17 -4,-3 -11,-4 -17,-2 -6,1 -11,6 -19,12 10,4 16,8 22,9zm526 -252c6,8 11,16 19,26 7,-14 14,-27 20,-39 -1,-1 -2,-2 -3,-4 -11,5 -22,11 -36,17zm6 41c-21,-37 -21,-37 -49,-19 17,6 32,12 49,19zm-141 97c-20,-7 -40,-14 -60,-21 -1,2 -1,4 -2,6 18,12 35,30 62,15zm-1412 761c-19,11 -36,20 -56,32 24,9 53,-8 56,-32zm1354 -749c-23,-24 -29,-24 -63,5 24,-2 43,-3 63,-5zm-1345 700c-3,-5 -6,-10 -11,-18 -11,7 -22,15 -35,22 17,18 17,18 46,-4zm1089 -662c-27,7 -29,9 -32,46 25,-5 25,-27 32,-46zm913 -875c43,-24 86,-49 127,-78 -45,25 -91,50 -136,75 1,2 1,3 2,5 2,-1 4,-1 6,-2zm-1251 1153c-22,13 -43,25 -64,38 26,-2 58,9 64,-38zm-735 378c13,-8 26,-15 39,-22 -17,-24 -18,-24 -51,3 4,7 8,13 13,19zm953 -486c7,6 12,10 16,14 29,24 31,23 38,-20 -18,2 -34,4 -54,6zm2193 601c15,-20 28,-38 43,-59 -33,-4 -50,18 -43,59zm-2447 -551c4,8 9,16 14,26 16,-10 31,-19 45,-28 -21,-7 -41,-18 -60,2zm-542 339c-5,-7 -8,-12 -11,-16 -25,6 -39,22 -43,53 20,-14 36,-25 54,-37zm220 -62c-6,0 -15,6 -19,12 -4,6 -4,15 -6,28 25,-12 46,-21 67,-31 -15,-4 -29,-9 -42,-9zm833 -576c-33,5 -44,18 -38,48 27,-5 36,-23 38,-48zm274 -165c5,7 10,15 16,25 16,-7 32,-14 51,-23 -25,-8 -44,-26 -67,-2zm-456 349c-25,16 -49,30 -76,47 72,-3 64,3 76,-47zm-2347 948c-1,5 8,12 13,18 2,-1 4,-2 5,-4l0 -74c-31,12 -15,39 -18,59zm3333 -2038c-7,-2 -16,3 -24,5 5,6 8,15 14,18 19,8 38,29 61,2 -18,-9 -33,-19 -50,-25zm349 -194c-4,-2 -13,4 -17,9 -2,3 1,14 5,17 13,9 28,17 42,23 4,2 11,-3 17,-4 -6,-32 -30,-35 -48,-45zm-1327 1324c32,-5 61,-9 90,-13 0,-3 0,-6 0,-9 -25,-7 -50,-15 -76,-23 -5,17 -9,28 -14,45zm681 -387c-23,-1 -40,-3 -57,-3 -6,0 -12,5 -23,10 34,15 65,28 100,43 -9,-22 -16,-40 -20,-49zm-1033 466c-28,27 -55,52 -81,77 1,2 3,4 4,7 30,-17 61,-35 93,-54 -6,-10 -10,-18 -17,-30zm-824 739c2,2 4,5 6,7 60,-63 121,-127 181,-190l-6 -7c-60,63 -121,127 -181,190zm1200 -877c31,9 57,16 87,25 -10,-23 -17,-41 -26,-62 -21,13 -39,24 -62,37zm-198 73c4,-3 9,-14 7,-17 -3,-6 -11,-13 -17,-12 -27,1 -53,35 -54,68 23,-14 44,-25 64,-39zm2367 703c26,10 49,-4 59,-37 6,-19 8,-38 12,-58 -1,0 -2,0 -3,-1 -23,32 -45,63 -68,95zm-15 -137c-18,22 -35,46 -51,70 -5,7 -4,19 -5,28 2,1 4,1 7,2 27,-37 53,-73 80,-110 -1,-2 -3,-4 -4,-6 -9,5 -20,9 -26,16zm-1751 -972c-21,14 -43,28 -64,42 31,27 56,7 84,-6 -7,-12 -12,-23 -19,-36zm-1390 1001c0,0 0,0 0,0 76,-82 152,-164 229,-246 -1,-1 -2,-2 -3,-4 -75,83 -150,166 -226,249zm1620 924c-1,-83 -3,-167 -5,-250 0,-2 -3,-4 -7,-10l0 280c1,0 3,1 4,1 3,-7 8,-14 8,-21zm-162 -1946c0,1 1,1 1,2 18,5 39,27 53,8 10,-15 4,-42 6,-68 -39,17 -39,17 -59,59zm-1031 703c24,19 50,11 68,-6 9,-8 6,-33 8,-52 -52,20 -70,34 -77,58zm1239 -708c-4,-20 -8,-40 -11,-60 -3,-15 -6,-29 -8,-44 -2,-17 -8,-24 -23,-13 -15,11 -20,27 -16,45 2,9 6,17 9,26 30,-5 31,-4 49,46zm22 -120c-9,4 -15,7 -24,10 7,41 14,82 22,124 9,-5 16,-10 24,-14 -7,-40 -14,-79 -22,-120zm-829 474c-10,8 -22,15 -34,21 -15,7 -13,20 -8,31 1,3 16,1 22,-2 26,-15 52,-31 79,-47 -22,-18 -40,-19 -59,-3zm2266 778c35,-47 69,-94 104,-142 -2,-2 -3,-5 -5,-7 -9,6 -20,9 -27,17 -32,42 -63,85 -94,128 1,3 2,5 3,8 6,-1 16,0 19,-4zm-2575 -511c-32,18 -33,20 -28,71 29,-16 58,-32 88,-48 -19,-15 -32,-39 -60,-23zm-1226 1712l99 0c-16,-28 -31,-55 -46,-81 -18,27 -35,54 -53,81zm870 -1869c-9,51 -14,103 2,154 2,7 -1,16 -2,24 -4,21 -11,41 -13,62 -1,10 6,21 11,35 22,-19 42,-31 52,-64 -21,8 -24,-1 -28,-15 -11,-45 -30,-89 -24,-137 4,-29 9,-58 13,-87 0,0 -1,-1 -1,-1 -4,9 -9,18 -10,27zm1418 930c-19,-3 -36,-6 -54,-9 19,69 37,135 54,197l0 -187zm-935 -815c0,0 1,2 1,2 27,-6 54,-10 80,-18 6,-2 12,-14 14,-22 4,-17 5,-35 8,-60 -38,35 -95,36 -104,99zm225 -91c-21,-18 -38,-42 -64,-34 -38,11 -44,29 -45,93 36,-19 71,-38 109,-59zm700 -1020c17,15 30,15 49,4 61,-38 122,-73 184,-109 12,-7 21,-14 14,-33 -83,46 -165,92 -247,138zm-368 320c4,-3 7,-12 7,-18 0,-11 -2,-22 -3,-36 -43,26 -84,50 -124,76 -4,3 -5,14 -5,21 0,9 1,19 3,32 42,-26 83,-50 123,-75zm-2555 1482c-5,5 -4,19 -5,29 -1,12 0,25 0,39l67 0 0 -109 -56 0c12,18 7,29 -6,41zm2147 -1365c66,-42 132,-83 198,-124 8,-5 15,-10 24,-16 -6,-7 -10,-13 -16,-21 -89,56 -178,111 -267,167 24,16 42,7 61,-6zm733 -307c28,-16 53,-30 79,-44 68,-38 135,-77 203,-114 13,-7 17,-15 11,-31 -97,52 -194,105 -293,158l0 31zm-1363 1154c-78,78 -156,157 -235,237 6,7 11,13 17,20 79,-81 157,-161 237,-243 -7,-5 -12,-8 -19,-13zm1302 -609c16,17 30,15 47,6 35,-18 71,-34 112,-54 -42,-17 -78,-32 -117,-48 -15,33 -29,65 -43,96zm-1550 888c-4,-5 -11,-14 -19,-23 -31,32 -61,62 -91,93 -13,13 -24,29 -39,40 -25,19 -25,41 -15,67 55,-59 109,-117 164,-176zm1357 -763c0,-2 1,-4 1,-6 -8,-2 -16,-7 -25,-7 -35,1 -71,3 -106,5 -5,0 -12,3 -13,7 -12,25 -24,51 -34,77 -2,5 0,13 0,22 61,-34 119,-66 178,-98zm-194 2036c0,-54 -1,-105 1,-157 1,-20 -8,-31 -24,-43 -6,73 -25,138 -62,200l86 0zm-1636 -95c37,60 98,61 138,4 44,-64 41,-176 -7,-236 -35,-43 -84,-44 -119,-1 -29,36 -39,78 -39,124 0,39 7,76 27,108zm-454 18c36,40 84,38 118,-4 50,-63 51,-180 0,-243 -32,-40 -83,-43 -117,-6 -32,35 -44,78 -45,128 2,45 12,89 43,125zm2275 -2524c-19,11 -3,30 -5,49 41,-24 78,-46 116,-67 24,-14 49,-29 73,-42 29,-16 29,-16 24,-57 -71,40 -140,77 -208,117zm-1127 2534c36,39 81,36 113,-7 47,-63 48,-184 4,-249 -37,-54 -98,-51 -132,9 -20,35 -29,74 -29,122 2,41 11,88 44,124zm1091 -2364c-5,-24 -10,-46 -16,-72 -21,13 -41,24 -60,36 -10,6 -20,12 -31,19 -48,29 -49,35 -21,93 43,-26 86,-51 128,-76zm-1167 2454c-28,-44 -44,-90 -49,-139 0,-4 -6,-10 -10,-11 -29,-7 -34,-2 -43,28 -12,41 -30,79 -60,108 -4,4 -9,6 -14,9 1,2 3,3 4,5l172 0zm559 -8c-14,-35 -29,-69 -39,-104 -6,-20 -12,-30 -33,-29 -12,0 -23,-8 -35,-11 -8,-2 -17,-9 -21,8 -10,45 -22,90 -33,137l161 0zm2585 -1349c-5,-46 -16,-87 -47,-118 -9,-9 -27,-7 -41,-8 -14,-1 -27,0 -33,19 -2,8 -18,9 -23,17 -17,25 -26,54 -24,90l168 0zm-1715 -1247c-5,-25 -9,-49 -14,-77 -22,12 -43,24 -64,37 -41,23 -82,47 -123,70 -28,16 -28,16 -20,49 3,13 6,26 10,41 72,-41 142,-81 212,-121zm-33 2270l-530 0c6,25 18,35 45,35 137,0 274,2 411,4 19,0 37,0 56,0 6,-13 11,-24 18,-38zm473 -2720c19,10 35,21 52,28 5,2 14,-2 21,-6 92,-53 -13,6 79,-46 28,-16 55,-32 83,-47 14,-7 20,-16 17,-33 -2,-10 0,-21 0,-33 -149,83 -100,53 -251,137zm-340 394c74,-41 147,-83 221,-124 15,-8 25,-15 18,-37 -5,-16 -5,-33 -7,-54 -16,8 -29,16 -43,24 -79,44 -157,88 -236,131 -13,7 -17,15 -13,30 5,18 8,36 13,56 18,-10 33,-18 48,-27zm1395 -753c17,-10 29,-19 43,-26 21,-10 3,-30 10,-43 25,23 25,40 -1,57 -7,5 -14,11 -22,13 -12,4 -25,6 -39,9 3,8 8,21 14,34 2,4 7,7 11,7 25,3 49,6 74,9 21,3 39,-16 32,-37 -33,-98 -66,-196 -100,-296 -28,33 -54,63 -80,94 27,23 45,19 77,-16 -6,-4 -12,-8 -20,-13 17,-2 24,-7 10,-22 24,-2 21,19 25,31 4,11 5,22 -9,28 -4,2 -7,5 -11,7 -21,13 -40,37 -66,3 -1,3 -2,5 -3,8 17,50 35,100 54,153zm-2930 2741c3,-52 6,-102 9,-154 -33,0 -62,0 -92,0 -29,0 -58,1 -87,2 -6,0 -15,5 -16,9 -10,48 -18,97 -28,150 76,-3 144,-5 214,-8zm2835 -2913c-202,113 -403,226 -606,339 18,12 34,24 51,34 4,2 13,-1 18,-4 106,-60 213,-120 319,-180 69,-39 139,-78 209,-118 7,-4 13,-8 20,-12 -4,-20 -8,-39 -12,-60zm-4041 3373l-104 0c-2,-33 -3,-64 -5,-96l-35 0c-29,87 -16,177 -21,266 -1,14 6,26 23,16 2,-1 5,-1 8,-1 51,-1 101,-2 152,-3 11,0 24,0 22,16 -1,7 -14,16 -22,17 -20,2 -40,1 -64,1 35,22 99,28 136,15 -60,-62 -83,-141 -92,-229zm1470 -649c-42,0 -83,0 -124,0 -2,0 -6,2 -7,4 -21,35 -54,28 -84,28 -7,0 -14,1 -22,1 -4,51 -8,101 -12,155 84,-3 166,-5 250,-8l0 -180zm1571 -1967c171,-96 143,-79 310,-173 -5,-27 -9,-51 -15,-79 -169,96 -141,80 -310,176 5,26 9,48 14,76zm-805 572c1,-1 1,-1 2,-2 -21,-50 -42,-99 -63,-150 -33,23 -68,48 -105,72 -174,119 -352,231 -539,326 -8,4 -16,14 -21,23 -22,43 -55,61 -101,58 -14,-1 -29,12 -44,17 -17,6 -25,18 -25,38 0,16 -4,32 -6,51 37,-18 71,-34 106,-51 1,1 2,3 3,4 -12,20 -24,40 -36,61 -11,20 -21,40 -34,59 -15,22 -12,43 -1,66 4,-7 7,-13 9,-19 39,-91 93,-171 164,-234 46,-41 100,-73 152,-106 158,-102 316,-203 474,-304 2,-2 5,-3 6,-3 21,32 41,63 60,94zm-765 1594c-41,0 -80,-1 -120,0 -163,5 -327,11 -490,16 -259,8 -517,15 -776,23 -67,2 -133,3 -200,4 -30,0 -32,2 -23,36 535,-14 1071,-28 1608,-42l0 -37zm2602 -2737c-6,-28 -12,-54 -19,-83 -52,29 -102,57 -152,85 -162,90 -324,180 -486,270 -17,9 -25,18 -17,39 6,16 8,33 13,52 222,-122 442,-242 661,-362zm-3514 2091c15,-1 23,6 29,22 34,85 44,175 46,267 2,98 0,195 -15,292 -1,4 -1,9 -1,16l263 0c5,-57 12,-116 15,-176 6,-135 -15,-266 -55,-394 -2,-6 -9,-15 -14,-15 -107,-8 -213,-14 -320,-21 0,3 -1,6 -1,9 18,0 36,1 54,0zm963 -714c17,-8 31,-14 45,-22 205,-112 403,-237 595,-373 11,-8 14,-16 13,-29 -3,-30 -5,-61 -8,-94 -35,22 -69,42 -102,63 -88,55 -176,111 -264,166 -6,4 -9,12 -14,17 -10,8 -20,15 -31,20 -8,4 -20,1 -27,6 -76,46 -152,94 -228,141 33,29 29,65 22,104zm-1105 1094c-13,0 -22,-3 -30,-15 -36,-49 -72,-96 -110,-144 -5,-6 -14,-11 -22,-12 -13,-2 -26,-1 -42,-1l0 57 -109 0 0 300c48,2 96,5 145,7 17,1 35,-2 47,17 3,5 14,5 21,4 71,-3 141,-6 212,-8 19,-1 30,-8 37,-26 23,-57 26,-117 26,-180 -61,0 -118,0 -176,0zm1821 400c21,0 36,4 45,26 2,5 11,8 17,8 59,1 118,1 177,2 13,0 21,-4 25,-17 5,-16 16,-20 31,-19 39,2 78,3 117,4 12,0 25,0 38,0l0 -213c1,0 2,-1 3,-1 5,29 11,57 17,90 7,-33 -30,-193 -53,-229 8,54 17,108 25,163 -45,0 -87,1 -128,0 -158,-5 -317,-11 -475,-14 -21,-1 -32,-7 -34,-29 -1,-7 -4,-14 -8,-20 12,81 23,163 36,250 55,0 111,1 167,0zm-265 118c1,-120 6,-240 1,-360 -2,-57 -23,-113 -35,-170 -15,-69 -16,-69 -82,-69 -112,-1 -224,-2 -336,-3 -8,0 -16,0 -26,0 -1,8 -1,15 -1,21 0,129 1,258 2,387 0,11 3,24 8,34 18,36 36,72 57,107 24,41 58,62 106,60 93,-3 186,-1 279,-1 8,0 15,0 23,0 2,-4 3,-6 3,-7zm-808 -1394c3,20 5,35 8,52 19,-11 36,-21 53,-31 -3,-14 -6,-28 -7,-42 -1,-4 2,-13 4,-13 4,-1 12,0 14,3 7,9 13,20 18,31 4,8 5,16 8,27 23,-12 36,-23 36,-52 -1,-44 17,-79 58,-96 9,-4 17,-9 28,-15 -21,-23 -31,-48 -24,-86 -78,58 -163,90 -231,154 -85,29 -156,89 -233,134 -79,46 -155,96 -233,144 -77,48 -155,94 -230,144 -75,50 -154,92 -228,143 0,2 1,4 1,6 53,-4 107,-8 160,-13 45,-4 90,-8 135,-13 9,-1 18,-3 25,-8 186,-118 372,-237 557,-356 24,-16 46,-36 71,-57 0,-15 -10,-34 9,-56zm3183 313l0 -1706c-34,-17 -64,-31 -95,-47 -3,27 -8,53 -8,80 -2,494 -3,988 -5,1483 0,54 0,107 -1,161 0,8 0,16 0,18 38,4 73,7 109,11zm-1695 -1411c9,8 18,18 28,24 8,4 20,8 27,4 94,-51 188,-103 282,-154 13,-7 13,-16 10,-29 -2,-7 -5,-19 -2,-20 6,-4 15,-6 23,-5 8,1 16,5 23,10 13,9 24,6 36,-1 154,-86 112,-59 266,-144 13,-7 18,-14 9,-29 -9,-16 0,-30 18,-28 7,1 14,4 19,8 16,12 31,10 48,0 187,-105 373,-212 563,-312 58,-30 96,-74 128,-129 6,-10 12,-20 20,-28 4,-4 13,-6 19,-4 4,1 7,10 7,16 1,9 0,19 0,29 33,-10 57,-2 83,26 6,7 14,15 21,16 28,6 32,10 21,39 -7,17 -6,32 1,49 25,67 48,134 72,200 3,8 8,16 14,21 41,34 38,103 -9,129 -16,9 -19,19 -19,36 2,491 3,981 4,1472 0,66 0,133 1,199 0,7 3,17 8,20 42,24 69,90 59,141 -9,44 -18,88 -26,131 -5,29 -16,40 -43,41 -11,1 -22,0 -35,0 2,29 -11,57 10,81 3,3 3,10 5,14 5,7 12,14 18,21 4,-10 10,-20 10,-31 0,-9 -6,-19 -9,-31 23,-1 35,12 42,30 10,25 2,56 -17,73 -22,19 -50,17 -84,-6 -29,23 -56,26 -79,10 -19,-14 -29,-42 -21,-70 5,-19 15,-35 36,-37 -1,16 -3,30 -2,45 0,4 8,8 13,12 3,-4 7,-8 9,-13 7,-13 13,-26 19,-39 2,-4 6,-9 6,-13 0,-16 -2,-32 -3,-48 -10,-1 -21,0 -31,-2 -18,-3 -38,-5 -45,-27 -10,-31 -21,-63 -26,-95 -8,-50 -13,-104 17,-147 23,-32 26,-65 25,-102 0,-11 1,-22 1,-34 1,-258 3,-517 3,-775 1,-270 1,-539 2,-809 0,-8 -3,-16 -6,-24 -3,-8 -9,-15 -10,-23 -2,-15 0,-31 -1,-47 0,-5 -1,-12 -5,-16 -19,-21 -36,-24 -60,-12 -8,4 -15,8 -22,12 -185,104 -370,209 -555,313 -14,8 -22,15 -19,35 4,39 -25,66 -61,57 -19,-5 -35,-1 -52,8 -144,80 -91,47 -235,126 -12,7 -12,15 -12,27 0,11 -1,27 -7,31 -16,12 -34,24 -56,18 -5,-1 -11,-1 -16,1 -27,12 -55,24 -81,39 -58,32 -116,65 -174,97 -26,14 -33,41 -31,64 3,46 15,91 25,136 3,12 8,33 15,34 11,2 24,-8 35,-15 13,-8 27,-7 33,6 7,15 15,43 9,48 -16,14 -38,20 -59,28 -10,4 -21,2 -31,5 -11,3 -20,10 -31,14 -51,22 -102,45 -154,67 -4,2 -10,7 -10,9 2,19 -12,20 -22,23 -29,7 -57,14 -80,36 -5,5 -14,5 -21,6 -13,3 -28,2 -39,8 -103,55 -205,113 -309,168 -178,95 -356,190 -533,285 -6,3 -13,7 -16,13 -10,21 -29,32 -49,32 -10,0 -21,1 -30,5 -100,49 -200,98 -299,148 -5,2 -10,6 -14,10 -24,24 -49,49 -73,74 -3,3 -8,8 -8,12 2,21 -13,26 -24,38 -17,19 -50,28 -42,66 1,5 -6,13 -11,18 -50,52 -100,104 -150,156 -7,7 -13,14 -20,23 31,0 58,1 86,0 41,-3 82,-10 123,-10 69,-1 137,4 207,-4 111,-13 223,-7 335,-9 19,0 38,-3 57,-4 1,-3 2,-5 2,-6 0,-43 0,-87 1,-130 1,-44 3,-87 -32,-119 -3,-3 -4,-8 -6,-12 -9,-24 -2,-47 21,-63 18,26 37,51 55,78 14,20 20,44 19,69 -1,52 0,105 -2,157 -1,23 8,29 26,28 7,0 13,-1 22,-1 -3,-5 -4,-8 -5,-10 -12,-13 -15,-28 -4,-42 8,-10 40,-2 47,12 15,32 38,47 72,40 5,-1 10,-1 15,0 19,4 31,-6 39,-24 4,-10 13,-21 22,-23 13,-4 27,-1 47,-1 -9,20 -16,34 -23,50 3,1 5,1 7,1 173,9 346,18 519,27 10,1 19,3 29,4 13,1 26,0 38,1 8,1 22,2 24,7 7,18 21,17 34,19 16,2 32,6 47,8 15,2 22,11 22,27 4,142 16,283 -4,425 -6,42 -2,86 -1,129 0,21 -9,31 -26,38 -10,4 -20,10 -30,14 -12,5 -24,9 -36,14 -12,5 -26,7 -34,15 -20,19 -38,42 -71,37l0 111c-94,-6 -185,-11 -279,-17l0 143c10,3 19,5 28,8 9,3 17,11 26,11 48,2 96,1 144,2 251,6 502,7 753,18 306,14 612,36 918,55 194,12 387,25 581,37 7,0 13,2 20,3 0,1 0,2 0,3l-5306 0c4,-5 8,-7 12,-7 105,-19 209,-41 315,-56 43,-6 78,-24 115,-47 -6,0 -11,0 -16,0 -35,0 -71,1 -106,0 -6,0 -12,-9 -18,-14 6,-6 11,-13 18,-17 6,-3 13,-1 24,-2 -13,-83 14,-165 -11,-246 -7,-23 -8,-48 -13,-72 -1,-3 -2,-7 -4,-10 -17,-27 -14,-47 8,-67 13,-12 10,-30 -4,-38 -5,-3 -10,-10 -11,-16 -1,-4 4,-13 7,-13 16,-1 15,-12 14,-23 0,-36 0,-71 0,-108 14,2 25,4 35,4 62,-2 124,-6 185,-8 137,-4 274,-7 411,-10 19,0 23,-8 16,-28 -10,0 -20,1 -30,0 -17,-2 -34,-4 -51,-7 -13,-2 -25,-8 -38,-8 -36,-1 -72,-1 -108,-1 -12,0 -22,-4 -19,-23l83 0c0,-2 0,-4 0,-6 -7,-1 -14,-3 -21,-3 -51,-2 -103,-4 -154,-5 -14,0 -25,-3 -22,-23 2,-15 1,-30 1,-45 0,-57 0,-113 0,-171 -6,-1 -12,-2 -17,-2 -49,-2 -97,-4 -146,-6 -49,-2 -97,-4 -146,-6 -28,-1 -34,-8 -34,-37 0,-25 1,-49 1,-74 0,-19 6,-28 24,-27 11,1 22,0 33,-1 39,-3 78,-5 121,-8l0 -189c15,2 26,4 37,4 21,1 41,2 62,2 44,-1 88,-4 133,-5 21,0 40,-1 59,-14 41,-28 84,-53 126,-79 29,-18 28,-19 22,-55 -2,-12 3,-26 4,-40 9,6 18,13 28,19 14,8 22,28 46,13 222,-142 445,-282 668,-422 12,-7 20,-14 15,-31 -4,-13 -6,-26 -5,-40 0,-9 5,-19 8,-28 8,3 16,6 24,11 3,2 6,6 8,10 13,21 24,25 44,13 58,-35 116,-70 174,-106 9,-6 17,-15 22,-25 18,-35 49,-56 80,-55 10,1 22,-2 31,-7 81,-49 162,-99 242,-149 23,-14 26,-24 19,-53 -3,-11 -5,-22 -4,-33 2,-17 15,-22 27,-10 14,13 27,27 41,41 25,-14 51,-28 80,-43 -18,-7 -30,-12 -48,-19 6,-8 9,-18 15,-22 96,-61 192,-121 288,-180 9,-6 22,-4 33,-6 6,-1 13,-2 17,-3 -2,-14 -3,-24 -4,-34 4,-2 8,-5 11,-7 4,8 7,16 13,23 5,7 12,13 19,17 21,10 41,8 60,-7 16,-12 34,-20 51,-31 5,-3 10,-8 13,-13 7,-13 13,-26 20,-40 3,-3 1,-8 1,-13 0,-7 3,-14 4,-20 6,2 14,3 18,7 26,24 26,24 56,6 5,-3 11,-6 17,-9 59,-39 129,-60 176,-117 -2,-15 -4,-29 -6,-42 2,-2 5,-3 7,-5z"/>
   <path class="fil1" d="M2679 3065c4,-96 -5,-188 -35,-277 -8,-23 -21,-32 -45,-33 -106,-1 -211,-3 -317,-6 -18,-1 -23,6 -23,24 1,42 0,84 1,125 0,7 2,16 7,20 52,46 104,92 158,134 13,10 34,13 51,13 63,2 126,1 190,1 4,0 8,-1 14,-2z"/>
   <path class="fil1" d="M1594 2798c2,-81 -4,-158 -26,-233 -9,-30 -19,-59 -29,-88 -2,-6 -9,-13 -14,-13 -62,-5 -125,-10 -187,-14 -2,0 -4,1 -7,2 9,34 20,67 25,101 11,72 18,145 26,217 2,16 5,23 22,23 54,1 107,3 160,5 9,0 18,0 30,0z"/>
   <path class="fil1" d="M4929 368c12,8 19,16 24,14 7,-2 11,-11 17,-18 -6,-5 -12,-15 -17,-15 -6,0 -13,9 -24,18z"/>
   <path class="fil1" d="M2026 3412c-44,49 -45,158 -3,210 17,20 37,26 59,18 -59,-49 -63,-177 1,-243 -23,-10 -41,-2 -56,15zm-17 -5c32,-46 82,-45 110,3 12,22 20,47 25,73 8,49 2,97 -22,140 -33,59 -88,58 -120,-2 -17,-31 -24,-65 -23,-94 0,-48 7,-86 30,-120z"/>
   <path class="fil1" d="M880 3413c-52,48 -50,165 4,211 15,13 31,18 53,11 -37,-30 -49,-70 -48,-116 1,-45 13,-85 49,-116 -23,-11 -41,-5 -58,10zm-26 9c35,-64 102,-60 132,7 28,61 27,123 -3,182 -31,61 -98,63 -129,2 -15,-29 -20,-64 -31,-98 10,-33 15,-66 30,-93z"/>
   <path class="fil1" d="M1405 3398c-19,-9 -35,-5 -50,8 -56,46 -59,167 -5,216 16,14 30,18 54,13 -66,-61 -57,-182 1,-237zm-74 7c29,-41 79,-41 109,0 43,56 43,163 1,220 -32,44 -85,42 -114,-3 -20,-32 -29,-67 -28,-106 -1,-41 9,-78 33,-111z"/>
   <path class="fil2" d="M5592 2758l0 1029c77,8 77,8 98,-71 109,0 218,0 328,0 13,0 29,3 39,11 69,53 128,39 154,-42 76,-238 67,-476 -10,-712 -109,-335 -322,-591 -607,-805l0 497c89,0 172,4 255,-1 69,-4 107,24 126,94l-383 0zm-3 -1083c0,134 -3,258 2,382 1,30 23,72 48,88 183,115 329,266 447,445 39,59 78,85 146,79 54,-5 108,-1 167,-1 -44,65 -44,65 -213,91 160,308 192,629 101,961 145,17 390,-86 541,-287 27,9 55,18 95,32 0,-171 -1,-333 1,-495 0,-38 -22,-88 39,-108 8,-3 7,-37 7,-57 0,-157 -2,-315 -1,-472 0,-21 9,-58 17,-59 61,-7 43,-52 43,-86 1,-184 1,-367 1,-556 23,-8 45,-15 70,-23 0,-190 -1,-376 1,-562 0,-31 -18,-73 40,-78 9,-1 22,-31 23,-48 14,-281 26,-563 38,-844 1,-25 2,-51 20,-76 0,155 -4,310 2,465 2,68 -38,150 46,202 10,6 4,39 4,59 0,108 -4,216 1,323 3,57 -34,127 44,167 9,5 4,38 5,58 0,114 -4,228 2,341 4,64 -41,144 48,190 9,5 3,38 3,59 0,128 -3,257 1,385 2,53 -34,123 48,155 9,4 6,43 6,66 0,152 -3,303 0,454 1,29 23,58 36,87 10,-3 21,-6 31,-9l0 592c42,2 77,4 119,6l0 -1920c143,60 273,111 398,171 18,9 23,61 23,93 1,542 1,1084 1,1626l0 91c39,6 72,11 116,17l0 -1036 344 0 0 1097 100 0 0 -638c38,-21 66,-37 94,-53 -22,-13 -43,-27 -63,-39 51,-4 64,-36 67,-94 5,-96 30,-190 47,-285 13,0 25,-1 38,-1 18,54 43,106 53,161 13,65 13,131 19,203 28,4 58,9 84,12 -30,16 -60,33 -90,50 27,11 54,22 92,38 1,29 4,69 4,108 1,178 4,356 0,533 -1,60 20,83 78,86 86,5 171,16 256,35l-4132 0c0,-3 -1,-6 -1,-10 105,-12 210,-24 326,-37 0,-35 0,-66 0,-97 -1,-606 0,-1212 -4,-1818 -1,-95 34,-159 119,-218z"/>
   <path class="fil2" d="M5690 3412l457 0c-7,38 -12,71 -18,105l-440 0 0 -105z"/>
   <polygon class="fil2" points="5685,3268 6141,3268 6141,3365 5685,3365 "/>
   <path class="fil2" d="M6123 3112c5,34 9,63 14,97l-450 0 0 -97 436 0z"/>
   <path class="fil2" d="M5685 3664l0 -95 435 0c-11,33 -21,65 -31,95l-404 0z"/>
   <path class="fil2" d="M5678 3056c2,-38 4,-66 6,-101 122,0 239,-5 356,4 26,2 49,53 86,97l-448 0z"/>
   <path class="fil2" d="M5684 2909l0 -103c100,0 198,-7 294,4 30,3 56,54 99,99l-392 0z"/>
   <path class="fil2" d="M193 6488l-66 381 -70 0 66 -381 70 0zm115 0l-10 57 -298 0 10 -57 298 0z"/>
   <path class="fil2" d="M472 6717l-19 0c2,-16 6,-33 12,-49 6,-16 14,-31 24,-45 10,-13 22,-24 37,-32 14,-8 31,-12 50,-11 16,0 29,4 39,9 10,6 19,14 24,24 6,10 10,21 12,34 2,13 2,26 0,40l-30 181 -68 0 31 -181c1,-10 1,-19 -1,-26 -2,-8 -5,-14 -11,-19 -6,-5 -14,-7 -25,-7 -12,0 -22,2 -31,6 -9,5 -16,11 -22,19 -6,8 -11,17 -14,27 -4,10 -6,20 -8,30zm53 -250l-70 402 -68 0 70 -402 67 0z"/>
   <path class="fil2" d="M917 6874c-19,0 -37,-4 -52,-11 -15,-7 -28,-17 -38,-29 -10,-12 -18,-27 -22,-43 -5,-16 -6,-34 -5,-53l1 -11c2,-19 7,-38 14,-56 7,-18 17,-33 30,-47 12,-14 27,-25 44,-33 17,-8 36,-11 57,-11 20,0 36,4 50,12 14,8 25,18 33,31 8,13 14,28 17,44 3,16 3,33 2,51l-4 29 -216 0 8 -48 147 0 1 -6c2,-10 1,-20 -1,-29 -3,-9 -7,-16 -14,-22 -7,-6 -16,-9 -27,-9 -13,0 -23,2 -32,8 -9,6 -16,13 -22,22 -6,9 -10,19 -13,30 -3,11 -5,22 -7,32l-1 10c-1,10 -1,19 1,29 1,10 4,18 9,26 4,8 10,14 18,19 8,5 17,8 29,8 14,0 27,-3 39,-9 12,-6 23,-14 33,-24l32 36c-8,12 -18,22 -30,29 -12,8 -25,14 -39,17 -14,4 -28,5 -42,5z"/>
   <path class="fil2" d="M1630 6488l-66 381 -70 0 66 -381 70 0zm115 0l-10 57 -298 0 10 -57 298 0z"/>
   <path class="fil2" d="M2006 6583l-8 65c-4,-1 -8,-1 -12,-2 -4,-1 -8,-1 -13,-1 -10,0 -20,1 -28,4 -8,3 -16,7 -22,13 -6,6 -11,12 -16,20 -4,8 -7,17 -10,27l-15 -2c2,-14 5,-28 9,-43 4,-15 10,-29 18,-42 7,-13 17,-23 29,-31 12,-8 26,-12 43,-12 4,0 8,0 12,1 4,1 8,2 12,3zm-92 64l-39 222 -67 0 49 -283 64 0 -7 61z"/>
   <path class="fil2" d="M2278 6798l37 -212 68 0 -49 283 -64 0 8 -71zm17 -55l21 -1c-2,17 -6,33 -11,49 -6,16 -13,30 -23,43 -10,13 -21,22 -35,30 -14,7 -31,11 -50,10 -16,0 -29,-3 -39,-9 -11,-6 -19,-13 -25,-23 -6,-10 -10,-21 -13,-33 -2,-13 -3,-26 -1,-40l31 -183 68 0 -31 184c-1,6 -1,12 0,18 1,6 2,11 4,16 2,5 6,8 10,11 4,3 10,4 18,5 16,1 29,-3 40,-9 11,-7 19,-16 25,-28 6,-12 10,-25 12,-39z"/>
   <path class="fil2" d="M2666 6790c1,-9 -1,-16 -6,-21 -6,-5 -12,-9 -21,-11 -8,-3 -16,-5 -22,-6 -10,-3 -21,-6 -32,-10 -11,-4 -20,-9 -29,-16 -9,-6 -16,-14 -21,-23 -5,-9 -7,-20 -7,-33 1,-15 5,-28 12,-39 7,-11 16,-20 28,-28 11,-7 24,-13 37,-16 13,-4 27,-5 40,-5 18,0 36,4 51,10 16,7 28,17 38,30 10,13 14,30 14,50l-67 0c0,-8 -1,-15 -4,-21 -3,-6 -8,-11 -14,-14 -6,-3 -13,-5 -22,-5 -7,0 -15,1 -22,4 -7,3 -13,7 -18,12 -5,5 -8,12 -9,20 -1,6 0,11 3,16 3,4 7,7 12,10 5,2 10,4 16,6 6,2 11,3 15,4 15,4 30,9 44,15 14,6 26,15 35,26 9,11 13,26 13,44 -1,16 -5,29 -13,40 -8,11 -17,20 -29,27 -12,7 -25,12 -39,15 -14,3 -28,5 -41,5 -19,0 -37,-4 -53,-12 -16,-7 -30,-18 -40,-32 -10,-14 -15,-31 -15,-51l64 0c0,10 2,18 6,24 4,7 9,12 16,15 7,3 15,5 25,5 8,0 15,-1 23,-3 8,-2 14,-6 20,-11 6,-5 9,-12 11,-20z"/>
   <path class="fil2" d="M2950 6516l68 0 -46 272c-1,6 -1,11 0,16 1,4 3,8 6,10 3,2 8,4 15,4 4,0 7,0 11,-1 4,-1 7,-1 11,-1l-5 52c-7,2 -13,3 -20,4 -7,1 -14,1 -21,1 -16,0 -29,-4 -40,-11 -10,-7 -17,-17 -22,-29 -4,-12 -6,-26 -4,-41l47 -277zm104 70l-9 50 -158 0 9 -50 158 0z"/>
   <path class="fil2" d="M3286 6874c-19,0 -37,-4 -52,-11 -15,-7 -28,-17 -38,-29 -10,-12 -18,-27 -22,-43 -5,-16 -6,-34 -5,-53l1 -11c2,-19 7,-38 14,-56 7,-18 17,-33 30,-47 12,-14 27,-25 44,-33 17,-8 36,-11 57,-11 20,0 36,4 50,12 14,8 25,18 33,31 8,13 14,28 17,44 3,16 3,33 2,51l-4 29 -216 0 8 -48 147 0 1 -6c2,-10 1,-20 -1,-29 -3,-9 -7,-16 -14,-22 -7,-6 -16,-9 -27,-9 -13,0 -23,2 -32,8 -9,6 -16,13 -22,22 -6,9 -10,19 -13,30 -3,11 -5,22 -7,32l-1 10c-1,10 -1,19 1,29 1,10 4,18 9,26 4,8 10,14 18,19 8,5 17,8 29,8 14,0 27,-3 39,-9 12,-6 23,-14 33,-24l32 36c-8,12 -18,22 -30,29 -12,8 -25,14 -39,17 -14,4 -28,5 -42,5z"/>
   <path class="fil2" d="M3719 6805l59 -338 68 0 -70 402 -61 0 4 -64zm-94 -78l0 5c-1,8 -1,17 -1,27 0,10 1,19 4,28 2,9 7,16 13,22 6,6 15,9 26,10 14,0 25,-3 36,-9 10,-7 18,-16 25,-26 6,-11 11,-22 13,-35l6 -41c1,-8 0,-17 -1,-25 -1,-8 -4,-16 -7,-23 -4,-7 -9,-13 -15,-17 -7,-4 -14,-7 -24,-7 -12,-1 -23,2 -32,8 -9,6 -16,13 -21,22 -6,9 -10,19 -13,30 -3,11 -5,21 -7,31zm-69 6l1 -6c2,-17 6,-35 12,-52 6,-18 14,-34 24,-48 10,-14 23,-26 38,-35 15,-9 33,-12 53,-12 18,1 32,6 44,14 12,9 21,20 27,34 7,14 11,29 14,45 2,16 3,32 3,46l-2 15c-3,16 -7,32 -14,49 -7,16 -15,32 -26,45 -10,14 -23,25 -37,33 -14,8 -31,12 -49,12 -19,-1 -34,-5 -47,-14 -12,-9 -22,-20 -28,-34 -7,-14 -11,-29 -13,-46 -2,-16 -2,-32 -1,-48z"/>
   <path class="fil2" d="M4432 6812l-10 57 -186 0 10 -57 186 0zm-108 -324l-66 381 -70 0 66 -381 71 0z"/>
   <path class="fil2" d="M4631 6513c0,-11 3,-20 11,-27 7,-7 17,-10 27,-11 10,0 19,3 27,9 8,6 11,15 11,26 0,11 -4,20 -11,26 -8,7 -17,10 -27,10 -10,0 -19,-3 -27,-9 -7,-6 -11,-15 -12,-25zm59 73l-49 283 -68 0 49 -283 67 0z"/>
   <path class="fil2" d="M4900 6869l-68 0 53 -309c3,-20 9,-38 18,-53 10,-15 22,-26 38,-35 16,-8 34,-12 55,-12 7,0 13,1 20,2 6,1 13,2 19,4l-6 53c-4,-1 -7,-2 -11,-2 -4,0 -8,-1 -12,-1 -9,0 -18,2 -25,5 -7,3 -13,8 -18,15 -5,6 -8,14 -10,24l-53 309zm105 -283l-9 50 -165 0 9 -50 165 0z"/>
   <path class="fil2" d="M5180 6516l68 0 -46 272c-1,6 -1,11 0,16 1,4 3,8 6,10 3,2 8,4 15,4 4,0 7,0 11,-1 4,-1 7,-1 11,-1l-5 52c-7,2 -13,3 -20,4 -7,1 -14,1 -21,1 -16,0 -30,-4 -40,-11 -10,-7 -17,-17 -22,-29 -4,-12 -6,-26 -4,-41l47 -277zm104 70l-9 50 -158 0 9 -50 158 0z"/>
   <path class="fil2" d="M5447 6513c0,-11 3,-20 11,-27 7,-7 17,-10 27,-11 10,0 19,3 27,9 8,6 11,15 11,26 0,11 -4,20 -11,26 -8,7 -17,10 -27,10 -10,0 -19,-3 -27,-9 -7,-6 -11,-15 -11,-25zm59 73l-49 283 -68 0 49 -283 67 0z"/>
   <path class="fil2" d="M5711 6717l-19 0c2,-17 6,-34 12,-50 6,-16 14,-31 24,-45 10,-13 23,-24 37,-31 15,-8 32,-11 51,-11 16,1 28,4 39,10 10,6 18,14 24,24 6,10 9,21 11,34 2,13 2,26 0,40l-30 182 -68 0 31 -182c1,-10 1,-18 -1,-26 -2,-8 -5,-14 -11,-18 -6,-4 -14,-7 -25,-7 -11,0 -22,2 -30,7 -9,5 -16,11 -22,19 -6,8 -11,17 -15,27 -4,10 -6,20 -8,29zm22 -67l-38 219 -68 0 49 -283 63 0 -7 64z"/>
   <path class="fil2" d="M6108 6727l-1 6c-1,9 -1,18 -1,27 0,10 2,19 5,28 3,9 7,16 14,22 6,6 15,9 26,9 14,1 26,-2 36,-9 10,-7 19,-15 26,-26 7,-11 11,-22 14,-35l6 -41c1,-9 0,-17 -1,-26 -1,-9 -4,-16 -8,-23 -4,-7 -9,-13 -16,-17 -7,-4 -15,-6 -25,-7 -12,-1 -23,2 -32,8 -9,6 -17,13 -23,22 -6,9 -11,19 -14,30 -4,11 -6,21 -7,32zm-69 6l1 -6c2,-18 6,-35 13,-53 6,-18 15,-33 25,-48 11,-14 24,-26 39,-34 15,-8 33,-12 54,-12 19,1 34,5 46,14 12,9 21,20 27,34 6,14 11,29 13,45 2,16 3,32 2,48l-2 15c-3,16 -8,32 -14,49 -7,16 -15,32 -25,45 -10,14 -23,25 -37,33 -14,8 -31,12 -49,12 -19,-1 -34,-5 -47,-14 -12,-9 -22,-20 -29,-34 -7,-14 -11,-29 -14,-46 -2,-16 -2,-33 -1,-48zm210 -147l62 0 -47 274c-3,25 -12,47 -25,66 -13,18 -30,32 -51,42 -21,10 -44,14 -69,14 -13,0 -25,-2 -37,-6 -12,-4 -24,-9 -34,-16 -11,-7 -20,-15 -27,-25l34 -40c8,10 17,19 28,25 11,6 23,9 36,9 14,0 27,-2 37,-8 11,-5 20,-13 27,-23 7,-10 12,-22 14,-36l36 -214 16 -61z"/>
   <path class="fil2" d="M6844 6730l-99 0 10 -57 92 0c14,0 26,-2 38,-7 11,-5 21,-12 28,-21 8,-10 12,-21 14,-36 2,-12 1,-23 -2,-32 -3,-9 -9,-17 -17,-23 -8,-6 -18,-9 -31,-9l-76 0 -56 324 -70 0 66 -381 138 0c24,0 45,6 64,15 19,10 33,23 43,41 10,18 14,39 12,64 -2,28 -11,50 -25,68 -15,18 -33,31 -56,40 -23,9 -47,13 -72,13z"/>
   <path class="fil2" d="M7268 6809l21 -132c1,-8 1,-16 -1,-23 -2,-7 -6,-12 -11,-17 -5,-4 -13,-6 -22,-7 -8,0 -16,1 -23,4 -7,3 -13,7 -17,13 -5,6 -8,12 -10,20l-67 1c1,-15 5,-29 13,-40 8,-11 18,-20 30,-28 12,-7 25,-13 39,-16 14,-3 28,-5 42,-5 19,0 37,4 52,12 15,8 27,19 35,33 8,14 11,32 9,52l-20 124c-2,10 -3,21 -3,31 -1,11 1,21 4,31l0 5 -67 0c-3,-10 -4,-20 -4,-30 0,-10 1,-20 2,-30zm29 -112l-7 41 -39 0c-8,0 -16,1 -24,3 -8,2 -16,5 -23,8 -7,4 -13,9 -18,15 -5,6 -8,14 -9,23 -1,7 0,13 2,18 2,5 6,9 11,12 5,3 11,5 18,5 10,0 19,-2 28,-6 9,-4 17,-9 24,-17 7,-7 12,-15 14,-25l16 30c-4,10 -9,20 -16,28 -7,9 -14,16 -23,22 -9,6 -18,11 -28,14 -10,3 -21,5 -32,5 -16,0 -30,-4 -43,-11 -13,-7 -23,-17 -31,-29 -7,-12 -11,-27 -10,-43 1,-18 5,-34 14,-46 8,-12 19,-22 33,-29 14,-7 28,-12 44,-15 16,-3 32,-5 47,-5l50 0z"/>
   <path class="fil2" d="M7690 6583l-8 65c-4,-1 -8,-1 -12,-2 -4,-1 -8,-1 -13,-1 -10,0 -20,1 -28,4 -8,3 -16,7 -22,13 -6,6 -12,12 -16,20 -4,8 -7,17 -10,27l-15 -2c2,-14 5,-28 9,-43 4,-15 10,-29 18,-42 7,-13 17,-23 29,-31 12,-8 26,-12 43,-12 4,0 8,0 12,1 4,1 8,2 12,3zm-92 64l-38 222 -68 0 49 -283 64 0 -7 61z"/>
   <path class="fil2" d="M7876 6516l68 0 -46 272c-1,6 -1,11 0,16 1,4 3,8 6,10 3,2 8,4 15,4 4,0 7,0 11,-1 4,-1 7,-1 11,-1l-5 52c-7,2 -13,3 -20,4 -7,1 -14,1 -21,1 -16,0 -29,-4 -40,-11 -10,-7 -17,-17 -22,-29 -4,-12 -6,-26 -4,-41l47 -277zm104 70l-9 50 -158 0 9 -50 158 0z"/>
   <path class="fil2" d="M8164 6717l-19 0c2,-17 6,-34 12,-50 6,-16 14,-31 24,-45 10,-13 23,-24 37,-31 15,-8 32,-11 51,-11 16,1 28,4 39,10 10,6 18,14 24,24 6,10 9,21 11,34 2,13 2,26 0,40l-30 182 -68 0 31 -182c1,-10 1,-18 -1,-26 -2,-8 -5,-14 -11,-18 -6,-4 -14,-7 -25,-7 -12,0 -22,2 -30,7 -9,5 -16,11 -22,19 -6,8 -11,17 -15,27 -4,10 -6,20 -8,29zm22 -67l-38 219 -68 0 49 -283 63 0 -7 64z"/>
   <path class="fil2" d="M8609 6874c-19,0 -37,-4 -52,-11 -15,-7 -28,-17 -38,-29 -10,-12 -18,-27 -22,-43 -5,-16 -6,-34 -5,-53l1 -11c2,-19 7,-38 14,-56 7,-18 17,-33 30,-47 12,-14 27,-25 44,-33 17,-8 36,-11 57,-11 20,0 36,4 50,12 14,8 25,18 33,31 8,13 14,28 17,44 3,16 3,33 2,51l-4 29 -216 0 8 -48 147 0 1 -6c2,-10 1,-20 -1,-29 -3,-9 -7,-16 -14,-22 -7,-6 -16,-9 -27,-9 -13,0 -23,2 -32,8 -9,6 -16,13 -22,22 -6,9 -10,19 -13,30 -3,11 -5,22 -7,32l-1 10c-1,10 -1,19 1,29 1,10 4,18 9,26 4,8 10,14 18,19 8,5 17,8 29,8 14,0 27,-3 39,-9 12,-6 23,-14 33,-24l32 36c-8,12 -18,22 -30,29 -12,8 -25,14 -39,17 -14,4 -28,5 -42,5z"/>
   <path class="fil2" d="M9064 6583l-8 65c-4,-1 -8,-1 -12,-2 -4,-1 -8,-1 -13,-1 -10,0 -20,1 -28,4 -8,3 -16,7 -22,13 -6,6 -11,12 -16,20 -4,8 -7,17 -10,27l-15 -2c2,-14 5,-28 9,-43 4,-15 10,-29 18,-42 7,-13 17,-23 29,-31 12,-8 26,-12 43,-12 4,0 8,0 12,1 4,1 8,2 12,3zm-92 64l-38 222 -67 0 49 -283 64 0 -7 61z"/>
  </g>
 </g>
</svg>
